<svg id="visual" viewBox="0 0 960 540" width="960" height="540" xmlns="http://www.w3.org/2000/svg" xmlns:xlink="http://www.w3.org/1999/xlink" version="1.1"><rect x="0" y="0" width="960" height="540" fill="#f0f4f7"></rect><defs><linearGradient id="grad1_0" x1="43.8%" y1="100%" x2="100%" y2="0%"><stop offset="14.444444444444446%" stop-color="#4385e8" stop-opacity="1"></stop><stop offset="85.55555555555554%" stop-color="#4385e8" stop-opacity="1"></stop></linearGradient></defs><defs><linearGradient id="grad1_1" x1="43.8%" y1="100%" x2="100%" y2="0%"><stop offset="14.444444444444446%" stop-color="#4385e8" stop-opacity="1"></stop><stop offset="85.55555555555554%" stop-color="#91bff1" stop-opacity="1"></stop></linearGradient></defs><defs><linearGradient id="grad1_2" x1="43.8%" y1="100%" x2="100%" y2="0%"><stop offset="14.444444444444446%" stop-color="#f0f4f7" stop-opacity="1"></stop><stop offset="85.55555555555554%" stop-color="#91bff1" stop-opacity="1"></stop></linearGradient></defs><defs><linearGradient id="grad2_0" x1="0%" y1="100%" x2="56.3%" y2="0%"><stop offset="14.444444444444446%" stop-color="#4385e8" stop-opacity="1"></stop><stop offset="85.55555555555554%" stop-color="#4385e8" stop-opacity="1"></stop></linearGradient></defs><defs><linearGradient id="grad2_1" x1="0%" y1="100%" x2="56.3%" y2="0%"><stop offset="14.444444444444446%" stop-color="#91bff1" stop-opacity="1"></stop><stop offset="85.55555555555554%" stop-color="#4385e8" stop-opacity="1"></stop></linearGradient></defs><defs><linearGradient id="grad2_2" x1="0%" y1="100%" x2="56.3%" y2="0%"><stop offset="14.444444444444446%" stop-color="#91bff1" stop-opacity="1"></stop><stop offset="85.55555555555554%" stop-color="#f0f4f7" stop-opacity="1"></stop></linearGradient></defs><g transform="translate(960, 540)"><path d="M-375 0C-377.1 -52.6 -379.1 -105.1 -357.5 -148.1C-335.9 -191.1 -290.6 -224.5 -249.6 -249.6C-208.6 -274.7 -171.8 -291.5 -130.9 -316C-90 -340.5 -45 -372.7 0 -405L0 0Z" fill="#bfdaf4"></path><path d="M-250 0C-251.4 -35 -252.8 -70.1 -238.4 -98.7C-224 -127.4 -193.8 -149.7 -166.4 -166.4C-139 -183.1 -114.5 -194.3 -87.3 -210.6C-60 -227 -30 -248.5 0 -270L0 0Z" fill="#68a3ee"></path><path d="M-125 0C-125.7 -17.5 -126.4 -35 -119.2 -49.4C-112 -63.7 -96.9 -74.8 -83.2 -83.2C-69.5 -91.6 -57.3 -97.2 -43.6 -105.3C-30 -113.5 -15 -124.2 0 -135L0 0Z" fill="#4385e8"></path></g><g transform="translate(0, 0)"><path d="M346 0C361.2 53.1 376.3 106.3 357.5 148.1C338.8 189.9 286 220.4 242.5 242.5C199 264.6 164.8 278.3 125.9 304C87 329.6 43.5 367.3 0 405L0 0Z" fill="#bfdaf4"></path><path d="M230.7 0C240.8 35.4 250.9 70.8 238.4 98.7C225.8 126.6 190.7 147 161.7 161.7C132.7 176.4 109.9 185.5 83.9 202.6C58 219.8 29 244.9 0 270L0 0Z" fill="#68a3ee"></path><path d="M115.3 0C120.4 17.7 125.4 35.4 119.2 49.4C112.9 63.3 95.3 73.5 80.8 80.8C66.3 88.2 54.9 92.8 42 101.3C29 109.9 14.5 122.4 0 135L0 0Z" fill="#4385e8"></path></g></svg>