<svg id="visual" viewBox="0 0 960 540" width="960" height="540" xmlns="http://www.w3.org/2000/svg" xmlns:xlink="http://www.w3.org/1999/xlink" version="1.1"><rect x="0" y="0" width="960" height="540" fill="#ffffff"></rect><defs><linearGradient id="grad1_0" x1="43.8%" y1="0%" x2="100%" y2="100%"><stop offset="14.444444444444446%" stop-color="#8d8dff" stop-opacity="1"></stop><stop offset="85.55555555555554%" stop-color="#8d8dff" stop-opacity="1"></stop></linearGradient></defs><defs><linearGradient id="grad1_1" x1="43.8%" y1="0%" x2="100%" y2="100%"><stop offset="14.444444444444446%" stop-color="#8d8dff" stop-opacity="1"></stop><stop offset="85.55555555555554%" stop-color="#cbc4ff" stop-opacity="1"></stop></linearGradient></defs><defs><linearGradient id="grad1_2" x1="43.8%" y1="0%" x2="100%" y2="100%"><stop offset="14.444444444444446%" stop-color="#ffffff" stop-opacity="1"></stop><stop offset="85.55555555555554%" stop-color="#cbc4ff" stop-opacity="1"></stop></linearGradient></defs><defs><linearGradient id="grad2_0" x1="0%" y1="0%" x2="56.3%" y2="100%"><stop offset="14.444444444444446%" stop-color="#8d8dff" stop-opacity="1"></stop><stop offset="85.55555555555554%" stop-color="#8d8dff" stop-opacity="1"></stop></linearGradient></defs><defs><linearGradient id="grad2_1" x1="0%" y1="0%" x2="56.3%" y2="100%"><stop offset="14.444444444444446%" stop-color="#cbc4ff" stop-opacity="1"></stop><stop offset="85.55555555555554%" stop-color="#8d8dff" stop-opacity="1"></stop></linearGradient></defs><defs><linearGradient id="grad2_2" x1="0%" y1="0%" x2="56.3%" y2="100%"><stop offset="14.444444444444446%" stop-color="#cbc4ff" stop-opacity="1"></stop><stop offset="85.55555555555554%" stop-color="#ffffff" stop-opacity="1"></stop></linearGradient></defs><g transform="translate(960, 0)"><path d="M0 310C-45.9 315.3 -91.8 320.6 -124 299.3C-156.2 278.1 -174.8 230.3 -194.5 194.5C-214.1 158.6 -234.9 134.5 -251.3 104.1C-267.7 73.7 -279.9 36.8 -292 0L0 0Z" fill="#e6e1ff"></path><path d="M0 206.7C-30.6 210.2 -61.2 213.7 -82.7 199.6C-104.1 185.4 -116.5 153.6 -129.6 129.6C-142.7 105.7 -156.6 89.7 -167.5 69.4C-178.5 49.1 -186.6 24.6 -194.7 0L0 0Z" fill="#aea8ff"></path><path d="M0 103.3C-15.3 105.1 -30.6 106.9 -41.3 99.8C-52.1 92.7 -58.3 76.8 -64.8 64.8C-71.4 52.9 -78.3 44.8 -83.8 34.7C-89.2 24.6 -93.3 12.3 -97.3 0L0 0Z" fill="#8d8dff"></path></g><g transform="translate(0, 540)"><path d="M0 -313C35.7 -295.6 71.4 -278.3 109.8 -265.2C148.2 -252 189.3 -243.1 219.2 -219.2C249.2 -195.3 268 -156.5 283.6 -117.5C299.2 -78.5 311.6 -39.2 324 0L0 0Z" fill="#e6e1ff"></path><path d="M0 -208.7C23.8 -197.1 47.6 -185.5 73.2 -176.8C98.8 -168 126.2 -162.1 146.1 -146.1C166.1 -130.2 178.7 -104.3 189.1 -78.3C199.5 -52.3 207.7 -26.2 216 0L0 0Z" fill="#aea8ff"></path><path d="M0 -104.3C11.9 -98.5 23.8 -92.8 36.6 -88.4C49.4 -84 63.1 -81 73.1 -73.1C83.1 -65.1 89.3 -52.2 94.5 -39.2C99.7 -26.2 103.9 -13.1 108 0L0 0Z" fill="#8d8dff"></path></g></svg>