<svg id="visual" viewBox="0 0 960 300" width="960" height="300" xmlns="http://www.w3.org/2000/svg" xmlns:xlink="http://www.w3.org/1999/xlink" version="1.1"><rect x="0" y="0" width="960" height="300" fill="#FFFFFF"></rect><path d="M0 136L32 138.7C64 141.3 128 146.7 192 145.7C256 144.7 320 137.3 384 136.2C448 135 512 140 576 150.3C640 160.7 704 176.3 768 175.5C832 174.7 896 157.3 928 148.7L960 140L960 0L928 0C896 0 832 0 768 0C704 0 640 0 576 0C512 0 448 0 384 0C320 0 256 0 192 0C128 0 64 0 32 0L0 0Z" fill="#e4eaf4"></path><path d="M0 147L32 138.3C64 129.7 128 112.3 192 112.7C256 113 320 131 384 130.2C448 129.3 512 109.7 576 106C640 102.3 704 114.7 768 119.2C832 123.7 896 120.3 928 118.7L960 117L960 0L928 0C896 0 832 0 768 0C704 0 640 0 576 0C512 0 448 0 384 0C320 0 256 0 192 0C128 0 64 0 32 0L0 0Z" fill="#bbcefc"></path><path d="M0 73L32 73.8C64 74.7 128 76.3 192 77.5C256 78.7 320 79.3 384 77.5C448 75.7 512 71.3 576 69.2C640 67 704 67 768 65.5C832 64 896 61 928 59.5L960 58L960 0L928 0C896 0 832 0 768 0C704 0 640 0 576 0C512 0 448 0 384 0C320 0 256 0 192 0C128 0 64 0 32 0L0 0Z" fill="#9dafff"></path><path d="M0 67L32 60C64 53 128 39 192 33.2C256 27.3 320 29.7 384 33.2C448 36.7 512 41.3 576 42C640 42.7 704 39.3 768 40.8C832 42.3 896 48.7 928 51.8L960 55L960 0L928 0C896 0 832 0 768 0C704 0 640 0 576 0C512 0 448 0 384 0C320 0 256 0 192 0C128 0 64 0 32 0L0 0Z" fill="#8d8dff"></path></svg>